<?xml version="1.0" encoding="UTF-8" standalone="no"?>


<svg
   width="300.5"
   height="272.4"
   viewBox="0 0 300.5 272.4"
   version="1.1"
   id="svg5"
   xmlns="http://www.w3.org/2000/svg">
  <defs id="defs2" />
  <g id="faces-c1" style="display:inline" transform="translate(92.03,-58.71)" />
  <g id="layer7" transform="translate(92.03,-58.71)" />
  <g id="corners-c2" transform="translate(92.03,-58.71)" />
  <g id="rivets" transform="translate(92.03,-58.71)" />
  <g id="layer5" transform="translate(92.03,-58.71)" />
  <g id="layer6" transform="translate(92.03,-58.71)">
    <path id="path7464"
       style="display:none;fill:none;stroke:#000000;stroke-width:0.264637px;stroke-linecap:butt;stroke-linejoin:miter;stroke-opacity:1"
       d="m 71.16,61.59 c 3.13,0.63 6.28,1.28 9.42,1.92 1.81,-0.68 3.63,-1.36 5.45,-2.02 -3.14,-0.61 -6.26,-1.21 -9.4,-1.8 -1.82,0.63 -3.64,1.26 -5.47,1.9 z" />
    <g id="g10302" style="display:none">
      <path style="fill:none;stroke:#000000;stroke-width:0.2646px;stroke-linecap:butt;stroke-linejoin:miter;stroke-opacity:1"
         d="M 82.61,60.14 74.5,63.07"
         id="path9268"/>
      <path style="fill:none;stroke:#000000;stroke-width:0.2646px;stroke-linecap:butt;stroke-linejoin:miter;stroke-opacity:1"
         d="m 80.58,59.7 -8.11,2.93"
         id="path9833"/>
      <path style="fill:none;stroke:#000000;stroke-width:0.2646px;stroke-linecap:butt;stroke-linejoin:miter;stroke-opacity:1"
         d="m 84.7,60.53 -8.11,2.93"
         id="path9835"/>
    </g>
    <g id="g1097" transform="matrix(3.754,0,0,3.755,581.4,-877.3)" style="stroke-width:0.266318">
      <path style="display:inline;fill:#ffffff;fill-opacity:1;stroke:none;stroke-width:0.0704518px;stroke-linecap:butt;stroke-linejoin:miter;stroke-opacity:1"
         d="m -173,257.1 20.9,-0.5 46.2,8.5 2.7,3.3 -12.5,49.3 -5.9,1.1 -51.9,-18.2 z"
         id="faces-bg-white" />
      <path style="display:inline;fill:#89cfeb;fill-opacity:1;stroke:none;stroke-width:0.0704518px;stroke-linecap:butt;stroke-linejoin:miter;stroke-opacity:1"
         d="m -173.7,258 53.9,12.1 0.3,50.2 -54,-17.7 -1.6,-4.6 -1.3,-35.6 z"
         id="path1967"/>
      <path style="display:inline;fill:#89cfeb;fill-opacity:1;stroke:none;stroke-width:0.0704518px;stroke-linecap:butt;stroke-linejoin:miter;stroke-opacity:1"
         d="m -105.9,265.7 -13.8,3.2 -55.1,-12.2 13.5,-2.9 3.1,0.3 52.4,10.3 z"
         id="path2146" />
      <path style="display:inline;fill:#89cfeb;fill-opacity:1;stroke:none;stroke-width:0.0704518px;stroke-linecap:butt;stroke-linejoin:miter;stroke-opacity:1"
         d="m -103.6,266.1 -14.8,4.1 0.7,50 1.5,-0.1 11.1,-5.9 2.4,-7.6 0.7,-35.7 z"
         id="path2148"/>
      <path style="fill:none;stroke:#1e85ae;stroke-width:0.211329;stroke-linecap:butt;stroke-linejoin:miter;stroke-miterlimit:4;stroke-dasharray:none;stroke-opacity:1"
         d="m -170.2,256 51.5,10.8"
         id="path10447"/>
      <path style="fill:#1e85ae;fill-opacity:1;stroke:#ffffff;stroke-width:0.140936;stroke-linecap:butt;stroke-linejoin:miter;stroke-miterlimit:4;stroke-dasharray:none;stroke-opacity:1"
         d="m -174.7,255.9 c -0.7,0.4 -1.1,1 -1.5,1.6 -0.3,0.4 -0.4,0.9 -0.5,1.4 -0.1,0.7 -0.1,1.5 -0.2,2.3 v 1.9 c 0,0.3 0.1,0.6 0.3,0.8 0.1,0.1 0.3,0.2 0.4,0.2 0,0 0.4,0 0.6,-0.1 0.4,-0.1 0.8,-0.3 1.2,-0.6 0.4,-0.3 0.7,-0.7 1,-1.2 0.2,-0.4 0.3,-0.6 0.5,-1.2 0.1,-0.6 0.2,-1.1 0.3,-1.7 0.1,-0.4 0.1,-0.9 0.3,-1.3 0.1,-0.4 0.3,-0.7 0.6,-0.9 0.3,-0.3 0.7,-0.5 1.1,-0.7 0,0 0.4,-0.3 0.5,-0.5 0,-0.2 0,-0.4 0,-0.5 -0.1,-0.1 -0.1,-0.1 -0.2,-0.2 -0.1,-0.1 -0.3,-0.2 -0.4,-0.3 -0.2,0 -0.3,0 -0.5,0 -0.2,0 -0.4,0 -0.8,0 -1,0.2 -1.9,0.6 -2.7,1 z"
         id="path2649"/>
      <path style="fill:#1e85ae;fill-opacity:1;stroke:#ffffff;stroke-width:0.211329;stroke-linecap:butt;stroke-linejoin:miter;stroke-miterlimit:4;stroke-dasharray:none;stroke-opacity:1"
         d="m -175.6,295.8 c 0,0 0,0.7 0,1.1 0,0.4 0,1.3 0,1.3 0.1,2.4 1.3,3.8 2.1,4.5 0.2,0.1 0.5,0.3 0.6,0.4 l 1.4,0.5 c 0.4,0.1 0.4,0.2 0.6,0.2 0.1,0 0.2,-0.2 0.2,-0.2 l 0.1,-0.2 c 0,0 -0.3,-0.4 -0.4,-0.8 -0.1,-0.1 -0.3,-0.3 -0.3,-0.4 0,-0.1 -0.2,-0.5 -0.2,-0.6 -0.8,-3.2 -2.9,-5.1 -3.7,-5.8 -0.1,-0.1 -0.2,-0.3 -0.4,0 z"
         id="path7921"/>
      <path style="fill:#1e85ae;fill-opacity:1;stroke:#ffffff;stroke-width:0.140936;stroke-linecap:butt;stroke-linejoin:miter;stroke-miterlimit:4;stroke-dasharray:none;stroke-opacity:1"
         d="m -116.7,313.5 c -1.4,0 -2.7,0 -4.2,0.2 -0.5,0.1 -1.2,0.1 -1.7,0.4 -0.5,0.2 -0.9,0.5 -1.2,0.9 -0.3,0.3 -0.6,0.7 -0.8,1.1 -0.1,0.5 -0.2,0.9 -0.3,1.4 -0.1,0.3 -0.1,0.7 -0.1,1.1 0,0.2 0,0.3 0.1,0.4 0.2,0.2 0.3,0.2 0.4,0.3 0.5,0.2 1,0.4 1.5,0.6 0.7,0.2 1.5,0.4 2.2,0.6 0.4,0.1 0.7,0.1 1,0.1 0.7,0.1 1.5,0.1 2.2,0.1 0.4,0 0.8,-0.1 1.3,-0.2 0.5,-0.1 1,-0.3 1.5,-0.5 0.4,-0.1 0.9,-0.3 1.3,-0.5 0.1,-0.1 0.3,-0.2 0.4,-0.3 0.1,-0.2 0.2,-0.4 0.3,-0.6 0.1,-0.2 0.1,-0.5 0.1,-0.8 0,-0.4 -0.1,-0.9 -0.2,-1.3 -0.2,-0.5 -0.4,-0.9 -0.6,-1.3 -0.2,-0.3 -0.4,-0.6 -0.7,-0.8 -0.4,-0.3 -0.7,-0.5 -1.1,-0.6 -0.3,-0.1 -0.5,-0.1 -0.8,-0.2 -0.2,0 -0.3,-0.1 -0.6,-0.1 z"
         id="path13838"/>
      <path style="fill:#1e85ae;fill-opacity:1;stroke:#ffffff;stroke-width:0.211329;stroke-linecap:butt;stroke-linejoin:miter;stroke-miterlimit:4;stroke-dasharray:none;stroke-opacity:1"
         d="m -102.8,307 -1.8,2.7 -0.8,1.8 -0.3,1.6 -0.5,1.4 -0.2,0.4 -0.4,0.4 -0.6,0.4 -0.9,0.5 c 0,0 0.8,0.1 1.2,0 0.5,-0.2 1.3,-0.8 1.3,-0.8 0,0 0.9,-0.7 1.3,-1.2 0.4,-0.4 1,-1.4 1,-1.4 l 0.8,-1.6 c 0,0 0.2,-0.9 0.3,-1.4 0.1,-0.4 0.1,-1.3 0.1,-1.3 v -1.4 c 0,0 -0.1,-0.8 -0.5,-0.1 z"
         id="path14534"/>
      <path style="fill:#1e85ae;fill-opacity:1;stroke:#ffffff;stroke-width:0.140936;stroke-linecap:butt;stroke-linejoin:miter;stroke-miterlimit:4;stroke-dasharray:none;stroke-opacity:1"
         d="m -107,263.5 -1.2,-0.2 h -0.6 c 0,0 -0.5,0.2 -0.7,0.3 -0.1,0.1 -0.2,0.3 -0.2,0.4 0,0.2 0.1,0.3 0.2,0.4 0.2,0.3 0.9,0.6 0.9,0.6 l 1.2,0.8 c 0,0 0.6,0.4 0.8,0.7 0.2,0.3 0.3,0.5 0.3,0.8 0.1,0.4 0.3,1 0.3,1 l 0.6,1.8 0.5,1 0.8,1 c 0,0 0.7,0.6 1.1,0.7 0.1,0.2 0.4,0.2 0.6,0.3 0.1,0 0.3,0 0.4,0 0.1,-0.1 0.3,-0.1 0.3,-0.3 0.1,-0.1 0.2,-0.2 0.2,-0.3 0.1,-0.2 0.1,-0.6 0.1,-0.6 l -0.1,-2 c 0,0 0,-0.5 0,-0.7 0,-0.1 -0.3,-1.6 -0.6,-2.3 -0.3,-0.6 -0.7,-1.2 -1.2,-1.7 -0.4,-0.4 -1.3,-1 -1.3,-1 l -1.3,-0.6 z"
         id="path16430"/>
      <path style="fill:#1e85ae;fill-opacity:1;stroke:#ffffff;stroke-width:0.140936;stroke-linecap:butt;stroke-linejoin:miter;stroke-miterlimit:4;stroke-dasharray:none;stroke-opacity:1"
         d="m -164.3,254.2 9.2,0.2 -0.4,-0.4 -0.6,-0.2 -2.9,-0.3 -3.6,0.1 -1.2,0.1 -0.3,0.2 z"
         id="path18338" />
      <path style="fill:#1e85ae;fill-opacity:1;stroke:#ffffff;stroke-width:0.140936;stroke-linecap:butt;stroke-linejoin:miter;stroke-miterlimit:4;stroke-dasharray:none;stroke-opacity:1"
         d="m -115.4,266.4 c -1.2,-0.3 -2.5,-0.3 -3.7,-0.3 -1.6,0.1 -3.2,0.4 -4.7,0.8 -0.3,0 -0.5,0.1 -0.8,0.3 -0.3,0.2 -0.7,0.4 -0.8,0.8 -0.2,0.3 -0.3,0.7 -0.3,1 0,0.6 0.1,1.2 0.3,1.8 0.4,1.2 0.9,2.3 1.6,3.3 0.7,0.9 1.4,1.7 2.2,2.4 0.5,0.4 1.1,0.7 1.7,0.9 0.3,0.1 0.7,0.2 1,0.2 0.4,0 0.8,-0.1 1.1,-0.3 0.6,-0.4 1.3,-0.8 1.9,-1.3 0.7,-0.6 1.3,-1.3 1.8,-2 0.6,-0.9 0.9,-1.9 1.1,-3 0.2,-0.8 0.4,-1.7 0.2,-2.6 -0.1,-0.3 -0.3,-0.6 -0.5,-0.8 -0.3,-0.3 -0.5,-0.4 -0.8,-0.6 -0.4,-0.2 -0.9,-0.4 -1.3,-0.6 z"
         id="path969"/>
      <path id="path1376"
         style="fill:#ffffff;fill-opacity:1;fill-rule:evenodd;stroke:none;stroke-width:0.0704518"
         d="m -122.7,316.7 a 0.7702,0.464 78.03 0 1 -0.3,0.9 0.7702,0.464 78.03 0 1 -0.6,-0.6 0.7702,0.464 78.03 0 1 0.3,-0.9 0.7702,0.464 78.03 0 1 0.6,0.6 z" />
      <path id="path1376-0"
         style="fill:#ffffff;fill-opacity:1;fill-rule:evenodd;stroke:none;stroke-width:0.0704518"         
         d="m -114.3,316.7 a 0.464,0.7702 12.52 0 1 -0.6,0.7 0.464,0.7702 12.52 0 1 -0.3,-0.8 0.464,0.7702 12.52 0 1 0.6,-0.7 0.464,0.7702 12.52 0 1 0.3,0.8 z" />
      <path id="path1512"
         style="fill:#ffffff;fill-opacity:1;fill-rule:evenodd;stroke:none;stroke-width:0.140936;stroke-miterlimit:4;stroke-dasharray:none"
         d="m -103.7,311.5 a 0.3418,0.6341 14.92 0 1 -0.5,0.5 0.3418,0.6341 14.92 0 1 -0.2,-0.7 0.3418,0.6341 14.92 0 1 0.5,-0.5 0.3418,0.6341 14.92 0 1 0.2,0.7 z" />
      <path id="path1616"
         style="fill:#ffffff;fill-opacity:1;fill-rule:evenodd;stroke:none;stroke-width:0.0704518"
         d="m -102.7,270.5 a 0.5737,1.06 9.107 0 1 -0.7,1 0.5737,1.06 9.107 0 1 -0.4,-1.2 0.5737,1.06 9.107 0 1 0.7,-0.9 0.5737,1.06 9.107 0 1 0.4,1.1 z" />
      <path id="path1720"
         style="fill:#ffffff;fill-opacity:1;fill-rule:evenodd;stroke:none;stroke-width:0.0704518"
         d="m -114.6,272.7 a 0.5785,0.7951 7.144 0 1 -0.6,0.8 0.5785,0.7951 7.144 0 1 -0.5,-0.9 0.5785,0.7951 7.144 0 1 0.6,-0.7 0.5785,0.7951 7.144 0 1 0.5,0.8 z" />
      <path id="path1824"
         style="fill:#ffffff;fill-opacity:1;fill-rule:evenodd;stroke:none;stroke-width:0.0704518"
         d="m -122.9,272.5 a 0.7812,0.5146 67.54 0 1 -0.2,0.9 0.7812,0.5146 67.54 0 1 -0.7,-0.4 0.7812,0.5146 67.54 0 1 0.2,-1 0.7812,0.5146 67.54 0 1 0.7,0.5 z" />
      <path id="path1928"
         style="fill:#ffffff;fill-opacity:1;fill-rule:evenodd;stroke:none;stroke-width:0.0704518"
         d="m -174.3,260.9 a 0.7124,0.4629 59.8 0 1 -0.1,0.8 0.7124,0.4629 59.8 0 1 -0.8,-0.4 0.7124,0.4629 59.8 0 1 0.1,-0.8 0.7124,0.4629 59.8 0 1 0.8,0.4 z" />
      <path id="path2032"
         style="fill:#ffffff;fill-opacity:1;fill-rule:evenodd;stroke:none;stroke-width:0.140936;stroke-miterlimit:4;stroke-dasharray:none"
         d="m -173,299.8 a 0.5659,0.3963 67.41 0 1 -0.2,0.7 0.5659,0.3963 67.41 0 1 -0.5,-0.4 0.5659,0.3963 67.41 0 1 0.1,-0.7 0.5659,0.3963 67.41 0 1 0.6,0.4 z" />
      <path style="fill:#1e85ae;fill-opacity:1;stroke:none;stroke-width:0.211329;stroke-linecap:butt;stroke-linejoin:miter;stroke-miterlimit:4;stroke-dasharray:none;stroke-opacity:1"
         d="m -145.1,253 c -0.2,0.1 -0.2,0.2 -0.3,0.3 -0.1,0.3 0,1 0,1 v 3.1 c -0.2,1.5 -2.8,1.2 -3.4,0.6 -0.2,-0.2 -0.2,-0.7 -0.2,-0.7 v -2.4 -2.3 c 0,0 0.1,-0.6 0.2,-0.9 0.2,-0.3 0.4,-0.5 0.6,-0.6 0.3,-0.2 0.7,-0.3 1.1,-0.4 1.2,-0.2 3.7,0.1 3.7,0.1 0,0 2.4,0.1 3.6,0.4 1.3,0.2 3.8,0.9 3.8,0.9 l 1.8,0.6 c 0,0 1,0.3 1.4,0.7 0.2,0.2 0.5,0.4 0.6,0.7 0.1,0.2 0.1,0.4 0.1,0.7 0.1,1.7 0.1,5.1 0.1,5.1 v 0.5 c 0,0.2 -0.1,0.5 -0.2,0.6 -0.2,0.1 -0.5,0.3 -0.7,0.3 -0.3,0.1 -0.8,0.1 -0.8,0.1 l -0.9,-0.1 c 0,0 -0.4,-0.2 -0.5,-0.3 -0.1,0 -0.2,-0.1 -0.2,-0.1 0,-0.1 -0.1,-0.2 -0.1,-0.3 -0.1,-1.1 0,-3.5 0,-3.5 v -1.2 c 0,0 -0.1,-0.7 -0.3,-0.9 -0.1,-0.2 -0.4,-0.3 -0.6,-0.4 -0.9,-0.4 -2.9,-0.8 -2.9,-0.8 l -3.6,-0.7 c -0.7,-0.1 -1.2,-0.2 -2,-0.2 z"
         id="path2227"/>
      <path style="fill:#89cfeb;fill-opacity:1;stroke:none;stroke-width:0.0704518px;stroke-linecap:butt;stroke-linejoin:miter;stroke-opacity:1"
         d="m -146.7,254 c -0.2,-1 1.2,-1.1 2,-1.1 0,0 -1.6,0.4 -2,1.1 z"
         id="path15010"/>
      <path style="fill:#1e85ae;fill-opacity:1;stroke:none;stroke-width:0.0704518px;stroke-linecap:butt;stroke-linejoin:miter;stroke-opacity:1"
         d="m -140.2,261.3 4.4,-1.7 -6.8,-1.2 -4.4,1.5 z"
         id="path7382" />
      <path id="path10237"
         style="fill:#fdfefe;fill-opacity:1;stroke:none;stroke-width:0.0186685;stroke-linecap:butt;stroke-linejoin:miter;stroke-miterlimit:4;stroke-dasharray:none;stroke-opacity:1"
         d="m -142.6,258.6 c -1.1,0.5 -2.2,0.8 -3.3,1.2 0.4,0.1 0.9,0.2 1.3,0.2 l 3.2,-1.1 c -0.4,-0.1 -0.8,-0.1 -1.2,-0.3 z m 1.6,0.3 -3.2,1.3 c 0.3,0 0.7,0.1 1,0.1 l 3.3,-1.1 c -0.3,-0.1 -0.7,-0.1 -1.1,-0.3 z m 1.5,0.3 -3.3,1.2 c 0.4,0.1 0.7,0.2 1,0.2 l 3.4,-1.1 c -0.4,-0.2 -0.8,-0.2 -1.1,-0.3 z m 1.4,0.3 -3.3,1.2 c 0.4,0.1 0.8,0.2 1.2,0.3 1.1,-0.4 2.2,-0.8 3.3,-1.3 -0.4,-0.1 -0.8,-0.1 -1.2,-0.2 z" />
    </g>
  </g>
  <g id="layer8" transform="translate(92.03,-58.71)" />
</svg>
